<svg xmlns="http://www.w3.org/2000/svg" viewBox="0 0 256 256"><g id="Ebene_2" data-name="Ebene 2"><g id="Ebene_1-2" data-name="Ebene 1"><rect width="256" height="256" style="fill:#01a8c5"/><path d="M147.55,116.43l-10,10L181,132.94l10-10-7.27-8.18,3.79-25.32-18.72,13.85a52.77,52.77,0,1,0,3.94,64.13l-13.26-9A36.79,36.79,0,1,1,129,101.11a36.41,36.41,0,0,1,26.93,11.73l-1.23.91Z" style="fill:#fff;opacity:0.5"/><path d="M191,122.94l6.52-43.5L178.83,93.29a52.77,52.77,0,1,0,3.94,64.13l-13.26-9A36.79,36.79,0,1,1,139,91.11a36.41,36.41,0,0,1,26.93,11.73l-18.38,13.59Z" style="fill:#fff"/></g></g></svg>